<mxfile host="app.diagrams.net" agent="Mozilla/5.0 (Windows NT 10.0; Win64; x64) AppleWebKit/537.36 (KHTML, like Gecko) Chrome/134.0.0.0 Safari/537.36" version="26.2.3">
  <diagram name="Page-1" id="UI_eG4zVW55TOYrWvs5F">
    <mxGraphModel dx="2457" dy="2543" grid="1" gridSize="10" guides="1" tooltips="1" connect="1" arrows="1" fold="1" page="1" pageScale="1" pageWidth="850" pageHeight="1100" math="0" shadow="0">
      <root>
        <mxCell id="0" />
        <mxCell id="1" parent="0" />
        <mxCell id="Ph2e4nfedScjpz59kExF-29" value="" style="rounded=0;whiteSpace=wrap;html=1;strokeColor=#B59BC4;strokeWidth=2" vertex="1" parent="1">
          <mxGeometry x="1170" y="120" width="130" height="150" as="geometry" />
        </mxCell>
        <mxCell id="Ph2e4nfedScjpz59kExF-1" value="" style="rounded=0;whiteSpace=wrap;html=1;fillColor=#B9E0A5;strokeWidth=0" vertex="1" parent="1">
          <mxGeometry x="370" y="255" width="155" height="75" as="geometry" />
        </mxCell>
        <mxCell id="7d5SSDF_79-ytGicw8yo-15" value="" style="rounded=0;whiteSpace=wrap;html=1;rotation=0;fillColor=#FFE086;shadow=0;strokeWidth=0" parent="1" vertex="1">
          <mxGeometry x="365" y="290" width="120" height="10" as="geometry" />
        </mxCell>
        <mxCell id="7d5SSDF_79-ytGicw8yo-10" value="" style="rounded=0;whiteSpace=wrap;html=1;rotation=0;fillColor=#95C8E1;shadow=0;strokeWidth=0" parent="1" vertex="1">
          <mxGeometry x="380" y="275" width="120" height="10" as="geometry" />
        </mxCell>
        <mxCell id="7d5SSDF_79-ytGicw8yo-5" value="" style="rounded=0;whiteSpace=wrap;html=1;rotation=-90;fillColor=#B59BC4;shadow=0;strokeWidth=0" parent="1" vertex="1">
          <mxGeometry x="130" y="160" width="295" height="180" as="geometry" />
        </mxCell>
        <mxCell id="CjwP9bHs1GxDhxbamFj4-2" value="&lt;h1 style=&quot;margin-top: 0px;&quot;&gt;Overview of current project aims&lt;/h1&gt;&lt;div&gt;&lt;br&gt;&lt;/div&gt;" style="text;html=1;whiteSpace=wrap;overflow=hidden;rounded=0;" parent="1" vertex="1">
          <mxGeometry x="30" y="40" width="410" height="60" as="geometry" />
        </mxCell>
        <mxCell id="CjwP9bHs1GxDhxbamFj4-3" value="&lt;span style=&quot;font-size: 10px; background-color: transparent; color: light-dark(rgb(0, 0, 0), rgb(255, 255, 255));&quot;&gt;Query:&amp;nbsp;&lt;br&gt;&lt;/span&gt;&lt;span style=&quot;background-color: transparent; color: light-dark(rgb(0, 0, 0), rgb(255, 255, 255));&quot;&gt;&lt;font style=&quot;font-size: 8px;&quot;&gt;&lt;font style=&quot;&quot;&gt;&amp;nbsp; &amp;nbsp; Record creation (by&lt;/font&gt;&lt;font style=&quot;&quot;&gt;&lt;font style=&quot;&quot;&gt; use&lt;/font&gt;&lt;font style=&quot;&quot;&gt;r)&lt;/font&gt;&lt;/font&gt;&lt;/font&gt;&lt;/span&gt;&lt;span style=&quot;background-color: transparent; color: light-dark(rgb(0, 0, 0), rgb(255, 255, 255));&quot;&gt;&lt;font size=&quot;3&quot;&gt;&amp;nbsp;&lt;/font&gt;&lt;/span&gt;" style="ellipse;shape=cloud;whiteSpace=wrap;html=1;" parent="1" vertex="1">
          <mxGeometry x="240" y="120" width="130" height="80" as="geometry" />
        </mxCell>
        <mxCell id="CjwP9bHs1GxDhxbamFj4-6" value="Unstructured PHI (health report)" style="shape=document;whiteSpace=wrap;html=1;boundedLbl=1;" parent="1" vertex="1">
          <mxGeometry x="260" y="260" width="120" height="70" as="geometry" />
        </mxCell>
        <mxCell id="CjwP9bHs1GxDhxbamFj4-8" value="&lt;span style=&quot;font-size: 6px;&quot;&gt;Structured PHI&lt;/span&gt;" style="shape=document;whiteSpace=wrap;html=1;boundedLbl=1;" parent="1" vertex="1">
          <mxGeometry x="330" y="180" width="60" height="40" as="geometry" />
        </mxCell>
        <mxCell id="CjwP9bHs1GxDhxbamFj4-22" value="" style="endArrow=classic;html=1;rounded=0;exitX=0.416;exitY=0.934;exitDx=0;exitDy=0;exitPerimeter=0;" parent="1" edge="1">
          <mxGeometry width="50" height="50" relative="1" as="geometry">
            <mxPoint x="309.92" y="325.38" as="sourcePoint" />
            <mxPoint x="250" y="150" as="targetPoint" />
            <Array as="points">
              <mxPoint x="310" y="361.76" />
              <mxPoint x="270" y="361.76" />
              <mxPoint x="220" y="361.76" />
              <mxPoint x="220" y="150" />
            </Array>
          </mxGeometry>
        </mxCell>
        <mxCell id="7d5SSDF_79-ytGicw8yo-9" value="" style="rounded=0;whiteSpace=wrap;html=1;rotation=0;fillColor=#CCCCCC;shadow=0;strokeWidth=0" parent="1" vertex="1">
          <mxGeometry x="532.35" y="281.64" width="97.65" height="68.36" as="geometry" />
        </mxCell>
        <mxCell id="CjwP9bHs1GxDhxbamFj4-25" value="Structured PHI" style="shape=parallelogram;perimeter=parallelogramPerimeter;whiteSpace=wrap;html=1;fixedSize=1;" parent="1" vertex="1">
          <mxGeometry x="470" y="260" width="120" height="60" as="geometry" />
        </mxCell>
        <mxCell id="7d5SSDF_79-ytGicw8yo-1" value="" style="endArrow=classic;html=1;rounded=0;movable=0;resizable=0;rotatable=0;deletable=0;editable=0;locked=1;connectable=0;" parent="1" edge="1">
          <mxGeometry width="50" height="50" relative="1" as="geometry">
            <mxPoint x="480" y="279.7" as="sourcePoint" />
            <mxPoint x="380" y="279.7" as="targetPoint" />
          </mxGeometry>
        </mxCell>
        <mxCell id="7d5SSDF_79-ytGicw8yo-2" value="" style="verticalLabelPosition=bottom;html=1;verticalAlign=top;strokeWidth=1;shape=mxgraph.lean_mapping.physical_pull;pointerEvents=1;rotation=-110;" parent="1" vertex="1">
          <mxGeometry x="560" y="281.64" width="50" height="75" as="geometry" />
        </mxCell>
        <mxCell id="7d5SSDF_79-ytGicw8yo-3" value="" style="endArrow=none;dashed=1;html=1;dashPattern=1 3;strokeWidth=2;rounded=0;exitX=0.438;exitY=-0.037;exitDx=0;exitDy=0;exitPerimeter=0;entryX=1;entryY=0.25;entryDx=0;entryDy=0;" parent="1" source="CjwP9bHs1GxDhxbamFj4-25" target="CjwP9bHs1GxDhxbamFj4-8" edge="1">
          <mxGeometry width="50" height="50" relative="1" as="geometry">
            <mxPoint x="450" y="230" as="sourcePoint" />
            <mxPoint x="390" y="190" as="targetPoint" />
          </mxGeometry>
        </mxCell>
        <mxCell id="7d5SSDF_79-ytGicw8yo-8" value="" style="endArrow=classic;html=1;rounded=0;exitX=0.545;exitY=0.952;exitDx=0;exitDy=0;exitPerimeter=0;entryX=0.422;entryY=-0.015;entryDx=0;entryDy=0;entryPerimeter=0;" parent="1" source="CjwP9bHs1GxDhxbamFj4-3" target="CjwP9bHs1GxDhxbamFj4-6" edge="1">
          <mxGeometry width="50" height="50" relative="1" as="geometry">
            <mxPoint x="310" y="200" as="sourcePoint" />
            <mxPoint x="310" y="260" as="targetPoint" />
          </mxGeometry>
        </mxCell>
        <mxCell id="CjwP9bHs1GxDhxbamFj4-24" value="" style="endArrow=classic;html=1;rounded=0;movable=1;resizable=1;rotatable=1;deletable=1;editable=1;locked=0;connectable=1;entryX=0.063;entryY=0.573;entryDx=0;entryDy=0;entryPerimeter=0;exitX=1;exitY=0.5;exitDx=0;exitDy=0;fillColor=#FFE008;" parent="1" source="CjwP9bHs1GxDhxbamFj4-6" target="CjwP9bHs1GxDhxbamFj4-25" edge="1">
          <mxGeometry width="50" height="50" relative="1" as="geometry">
            <mxPoint x="380" y="295.54" as="sourcePoint" />
            <mxPoint x="475.45" y="294.46" as="targetPoint" />
          </mxGeometry>
        </mxCell>
        <mxCell id="Ph2e4nfedScjpz59kExF-27" value="" style="group" vertex="1" connectable="0" parent="1">
          <mxGeometry x="680" y="170" width="380" height="190" as="geometry" />
        </mxCell>
        <mxCell id="Ph2e4nfedScjpz59kExF-8" value="Key" style="swimlane;fontStyle=0;childLayout=stackLayout;horizontal=1;startSize=30;horizontalStack=0;resizeParent=1;resizeParentMax=0;resizeLast=0;collapsible=1;marginBottom=0;whiteSpace=wrap;html=1;movable=1;resizable=1;rotatable=1;deletable=1;editable=1;locked=0;connectable=1;" vertex="1" parent="Ph2e4nfedScjpz59kExF-27">
          <mxGeometry width="380" height="190" as="geometry" />
        </mxCell>
        <mxCell id="Ph2e4nfedScjpz59kExF-9" value="&lt;blockquote style=&quot;margin: 0 0 0 40px; border: none; padding: 0px;&quot;&gt;&lt;blockquote style=&quot;margin: 0 0 0 40px; border: none; padding: 0px;&quot;&gt;RAG Module&lt;/blockquote&gt;&lt;/blockquote&gt;" style="text;strokeColor=none;fillColor=none;align=left;verticalAlign=middle;spacingLeft=4;spacingRight=4;overflow=hidden;points=[[0,0.5],[1,0.5]];portConstraint=eastwest;rotatable=1;whiteSpace=wrap;html=1;movable=1;resizable=1;deletable=1;editable=1;locked=0;connectable=1;" vertex="1" parent="Ph2e4nfedScjpz59kExF-8">
          <mxGeometry y="30" width="380" height="30" as="geometry" />
        </mxCell>
        <mxCell id="Ph2e4nfedScjpz59kExF-10" value="&lt;blockquote style=&quot;margin: 0 0 0 40px; border: none; padding: 0px;&quot;&gt;&lt;blockquote style=&quot;margin: 0 0 0 40px; border: none; padding: 0px;&quot;&gt;Structured PHI -&amp;gt; Unstructured PHI Module&lt;/blockquote&gt;&lt;/blockquote&gt;" style="text;strokeColor=none;fillColor=none;align=left;verticalAlign=middle;spacingLeft=4;spacingRight=4;overflow=hidden;points=[[0,0.5],[1,0.5]];portConstraint=eastwest;rotatable=1;whiteSpace=wrap;html=1;movable=1;resizable=1;deletable=1;editable=1;locked=0;connectable=1;" vertex="1" parent="Ph2e4nfedScjpz59kExF-8">
          <mxGeometry y="60" width="380" height="30" as="geometry" />
        </mxCell>
        <mxCell id="Ph2e4nfedScjpz59kExF-11" value="&lt;blockquote style=&quot;margin: 0 0 0 40px; border: none; padding: 0px;&quot;&gt;&lt;blockquote style=&quot;margin: 0 0 0 40px; border: none; padding: 0px;&quot;&gt;Unstructured PHI -&amp;gt; Structured PHI Module&lt;/blockquote&gt;&lt;/blockquote&gt;" style="text;strokeColor=none;fillColor=none;align=left;verticalAlign=middle;spacingLeft=4;spacingRight=4;overflow=hidden;points=[[0,0.5],[1,0.5]];portConstraint=eastwest;rotatable=1;whiteSpace=wrap;html=1;movable=1;resizable=1;deletable=1;editable=1;locked=0;connectable=1;" vertex="1" parent="Ph2e4nfedScjpz59kExF-8">
          <mxGeometry y="90" width="380" height="30" as="geometry" />
        </mxCell>
        <mxCell id="Ph2e4nfedScjpz59kExF-13" value="&lt;span style=&quot;white-space: pre;&quot;&gt;&#x9;&lt;/span&gt;&lt;span style=&quot;white-space: pre;&quot;&gt;&#x9;&lt;/span&gt;&lt;span style=&quot;white-space: pre;&quot;&gt;&#x9;&lt;/span&gt;Error propagation Module" style="text;strokeColor=none;fillColor=none;align=left;verticalAlign=middle;spacingLeft=4;spacingRight=4;overflow=hidden;points=[[0,0.5],[1,0.5]];portConstraint=eastwest;rotatable=1;whiteSpace=wrap;html=1;movable=1;resizable=1;deletable=1;editable=1;locked=0;connectable=1;" vertex="1" parent="Ph2e4nfedScjpz59kExF-8">
          <mxGeometry y="120" width="380" height="30" as="geometry" />
        </mxCell>
        <mxCell id="Ph2e4nfedScjpz59kExF-14" value="&lt;span style=&quot;white-space: pre;&quot;&gt;&#x9;&lt;/span&gt;&lt;span style=&quot;white-space: pre;&quot;&gt;&#x9;&lt;/span&gt;&lt;span style=&quot;white-space: pre;&quot;&gt;&#x9;&lt;/span&gt;Probability Distribution (Bayesian Inference):&lt;div&gt;&lt;span style=&quot;white-space: pre;&quot;&gt;&#x9;&lt;/span&gt;&lt;span style=&quot;white-space: pre;&quot;&gt;&#x9;&lt;/span&gt;&lt;span style=&quot;white-space: pre;&quot;&gt;&#x9;&lt;/span&gt;Working on w/ lab but NOT in this package.&lt;br&gt;&lt;/div&gt;" style="text;strokeColor=none;fillColor=none;align=left;verticalAlign=middle;spacingLeft=4;spacingRight=4;overflow=hidden;points=[[0,0.5],[1,0.5]];portConstraint=eastwest;rotatable=1;whiteSpace=wrap;html=1;movable=1;resizable=1;deletable=1;editable=1;locked=0;connectable=1;" vertex="1" parent="Ph2e4nfedScjpz59kExF-8">
          <mxGeometry y="150" width="380" height="40" as="geometry" />
        </mxCell>
        <mxCell id="Ph2e4nfedScjpz59kExF-20" value="" style="rounded=0;whiteSpace=wrap;html=1;rotation=-90;fillColor=#B59BC4;shadow=0;strokeWidth=0;movable=1;resizable=1;rotatable=1;deletable=1;editable=1;locked=0;connectable=1;" vertex="1" parent="Ph2e4nfedScjpz59kExF-27">
          <mxGeometry x="30" y="20" width="15" height="42.5" as="geometry" />
        </mxCell>
        <mxCell id="Ph2e4nfedScjpz59kExF-22" value="" style="rounded=0;whiteSpace=wrap;html=1;rotation=-90;fillColor=#95C8E1;shadow=0;strokeWidth=0;movable=1;resizable=1;rotatable=1;deletable=1;editable=1;locked=0;connectable=1;" vertex="1" parent="Ph2e4nfedScjpz59kExF-27">
          <mxGeometry x="30" y="50" width="15" height="42.5" as="geometry" />
        </mxCell>
        <mxCell id="Ph2e4nfedScjpz59kExF-24" value="" style="rounded=0;whiteSpace=wrap;html=1;rotation=-90;fillColor=#FFE086;shadow=0;strokeWidth=0;movable=1;resizable=1;rotatable=1;deletable=1;editable=1;locked=0;connectable=1;" vertex="1" parent="Ph2e4nfedScjpz59kExF-27">
          <mxGeometry x="30" y="80" width="15" height="42.5" as="geometry" />
        </mxCell>
        <mxCell id="Ph2e4nfedScjpz59kExF-25" value="" style="rounded=0;whiteSpace=wrap;html=1;rotation=-90;fillColor=#B9E0A5;shadow=0;strokeWidth=0;movable=1;resizable=1;rotatable=1;deletable=1;editable=1;locked=0;connectable=1;" vertex="1" parent="Ph2e4nfedScjpz59kExF-27">
          <mxGeometry x="30" y="110" width="15" height="42.5" as="geometry" />
        </mxCell>
        <mxCell id="Ph2e4nfedScjpz59kExF-26" value="" style="rounded=0;whiteSpace=wrap;html=1;rotation=-90;fillColor=#CCCCCC;shadow=0;strokeWidth=0;movable=1;resizable=1;rotatable=1;deletable=1;editable=1;locked=0;connectable=1;" vertex="1" parent="Ph2e4nfedScjpz59kExF-27">
          <mxGeometry x="30" y="140" width="15" height="42.5" as="geometry" />
        </mxCell>
        <mxCell id="Ph2e4nfedScjpz59kExF-30" value="" style="rounded=0;whiteSpace=wrap;html=1;strokeColor=#B59BC4;strokeWidth=2" vertex="1" parent="1">
          <mxGeometry x="1120" y="330" width="130" height="150" as="geometry" />
        </mxCell>
        <mxCell id="Ph2e4nfedScjpz59kExF-31" value="" style="rounded=0;whiteSpace=wrap;html=1;strokeColor=#B59BC4;strokeWidth=2" vertex="1" parent="1">
          <mxGeometry x="1320" y="356.64" width="130" height="150" as="geometry" />
        </mxCell>
        <mxCell id="Ph2e4nfedScjpz59kExF-32" value="" style="rounded=0;whiteSpace=wrap;html=1;strokeColor=#B59BC4;strokeWidth=2" vertex="1" parent="1">
          <mxGeometry x="1500" y="320" width="130" height="150" as="geometry" />
        </mxCell>
        <mxCell id="Ph2e4nfedScjpz59kExF-33" value="" style="rounded=0;whiteSpace=wrap;html=1;strokeColor=#B59BC4;strokeWidth=2" vertex="1" parent="1">
          <mxGeometry x="1360" y="105" width="130" height="150" as="geometry" />
        </mxCell>
      </root>
    </mxGraphModel>
  </diagram>
</mxfile>
